<svg xmlns="http://www.w3.org/2000/svg" viewBox="0 0 320 440" fill="none" role="img" aria-label="Professional resume template preview">
  <rect width="320" height="440" rx="16" fill="#F8FAFC"/>
  <rect x="24" y="28" width="172" height="18" rx="9" fill="#0F172A" opacity="0.88"/>
  <rect x="72" y="54" width="176" height="8" rx="4" fill="#64748B" opacity="0.55"/>
  <rect x="24" y="88" width="88" height="10" rx="5" fill="#2563EB" opacity="0.75"/>
  <rect x="24" y="108" width="272" height="6" rx="3" fill="#CBD5E1"/>
  <rect x="24" y="122" width="248" height="6" rx="3" fill="#CBD5E1"/>
  <rect x="24" y="136" width="220" height="6" rx="3" fill="#CBD5E1"/>
  <rect x="24" y="168" width="104" height="10" rx="5" fill="#2563EB" opacity="0.75"/>
  <rect x="24" y="188" width="200" height="7" rx="3.5" fill="#94A3B8" opacity="0.7"/>
  <rect x="24" y="204" width="272" height="6" rx="3" fill="#CBD5E1"/>
  <rect x="24" y="218" width="256" height="6" rx="3" fill="#CBD5E1"/>
  <rect x="24" y="232" width="240" height="6" rx="3" fill="#CBD5E1"/>
  <rect x="24" y="246" width="248" height="6" rx="3" fill="#CBD5E1"/>
  <rect x="24" y="278" width="88" height="10" rx="5" fill="#2563EB" opacity="0.75"/>
  <rect x="24" y="298" width="176" height="7" rx="3.5" fill="#94A3B8" opacity="0.7"/>
  <rect x="24" y="314" width="272" height="6" rx="3" fill="#CBD5E1"/>
  <rect x="24" y="328" width="248" height="6" rx="3" fill="#CBD5E1"/>
  <rect x="24" y="360" width="88" height="10" rx="5" fill="#2563EB" opacity="0.75"/>
  <rect x="24" y="380" width="120" height="7" rx="3.5" fill="#94A3B8" opacity="0.7"/>
  <rect x="24" y="396" width="272" height="6" rx="3" fill="#CBD5E1"/>
  <rect x="24" y="410" width="232" height="6" rx="3" fill="#CBD5E1"/>
</svg>
